<?xml version="1.0" encoding="utf-8"?>
<!-- Generator: Adobe Illustrator 27.6.1, SVG Export Plug-In . SVG Version: 6.00 Build 0)  -->
<svg version="1.1" id="Layer_1" xmlns="http://www.w3.org/2000/svg" xmlns:xlink="http://www.w3.org/1999/xlink" x="0px" y="0px"
	 viewBox="0 0 345.7 55.8" style="enable-background:new 0 0 345.7 55.8;" xml:space="preserve">
<style type="text/css">
	.st0{fill:#FFFFFF;}
	.st1{fill-rule:evenodd;clip-rule:evenodd;fill:url(#SVGID_1_);}
</style>
<g>
	<path class="st0" d="M124.8,41.6c0,3.9,0.6,6.5,4.5,6.5c3.7,0,6.6-2.2,6.6-8.3V23.5l-4-0.5v-4.7l15.1-0.6v30.8l4.5,0.5v5h-14
		l-0.4-6.5h-0.4c-1.8,3.7-4.6,7.3-11.7,7.3c-7.2,0-11.4-3.3-11.4-11.7V23.5l-4-0.5v-4.6l15.2-0.6L124.8,41.6L124.8,41.6z"/>
	<path class="st0" d="M156,42.3h4.5c1.1,4.5,4.9,7.5,10.5,7.5c4,0,6-1.3,6-4c0-3.2-3.2-3.8-7.3-4.5c-6.1-1.1-13.5-2.3-13.5-11.9
		c0-7.5,5.8-12.3,13.4-12.3c3.2,0,5.3,0.9,6.8,1.7c0.5,0.3,1,0.4,1.5,0.4c0.9,0,1.1-0.5,1.4-1.7h3.8v11.2h-4.4
		c-1.9-4.6-4.4-6.8-9-6.8c-2.8,0-5.5,1.1-5.5,3.7c0,3,3.2,3.5,7.1,4.3c6.1,1.1,13.8,2.6,13.8,12.2c0,8-5.3,12.6-13.2,12.6
		c-4.5,0-7-1.3-8.9-2.2c-0.5-0.2-0.9-0.4-1.4-0.4c-0.8,0-1.1,0.5-1.5,2.2H156L156,42.3L156,42.3z"/>
	<path class="st0" d="M204.7,0v19.1l-0.3,4.5h0.4c2-3.6,5-6.5,11.2-6.5c7.1,0,11.2,3.3,11.2,11.7v19.6l4.5,0.5v5h-19.1v-5l3.4-0.5
		V30.3c0-3.9-0.5-6.5-4.5-6.5c-3.8,0-6.8,2.3-6.8,8.4v16.3l3.7,0.5v5h-19.5v-5l4.7-0.5V6l-4.7-0.5v-5L204.7,0z"/>
	<path class="st0" d="M255.8,35.2V30c0-5.5-1.3-8.8-6.4-8.8c-2.2,0-4.1,0.5-4.1,2.4c0,0.3,0.1,0.6,0.1,1h2.7
		c0.2,0.9,0.4,1.9,0.4,2.8c0,2.9-1.8,5-5.5,5c-3.9,0-5.6-2.5-5.6-5.7c0-5.7,5.2-9.6,14.5-9.6c9.6,0,15.1,3.2,15.1,13.6v14.8
		c0,2.6,0.1,3.8,1.7,3.8c0.6,0,1.3-0.1,2.4-0.6l1,3.7c-1.4,0.9-4.5,2.3-8.1,2.3c-4.6,0-6.6-1.9-7.4-5.4c-1.3,2.4-4,5.4-10.1,5.4
		c-5.8,0-10.6-2.5-10.6-9.4c0-7.8,5.5-10.1,15-10.1L255.8,35.2L255.8,35.2z M255.8,43.4V39h-2.8c-4.5,0-5.8,1.8-5.8,5.5
		c0,3.4,1.1,4.9,4,4.9C253.5,49.4,255.8,47.8,255.8,43.4z"/>
	<path class="st0" d="M298.4,49v5h-24v-5l4.7-0.5V23.6l-4.7-0.5v-4.9l14.7-0.5l0.5,6.2h0.3c1.7-3.4,4.5-6.8,10.4-6.8
		c4.8,0,8.6,2.6,8.6,8.6c0,4.8-2.9,7.6-7,7.6c-4.5,0-6.1-2.8-6-6.5l2.9-0.9c0.1-0.4,0.1-0.6,0.1-0.9c0-1.2-0.9-1.7-2.1-1.7
		c-4,0-6.5,4.9-6.5,10.2v15L298.4,49z"/>
	<path class="st0" d="M335.3,49v5h-24v-5l4.7-0.5V23.6l-4.7-0.5v-4.9l14.7-0.5l0.5,6.2h0.3c1.7-3.4,4.5-6.8,10.4-6.8
		c4.8,0,8.6,2.6,8.6,8.6c0,4.8-2.9,7.6-7,7.6c-4.5,0-6.1-2.8-6-6.5l2.9-0.9c0.1-0.4,0.1-0.6,0.1-0.9c0-1.2-0.9-1.7-2.1-1.7
		c-4,0-6.5,4.9-6.5,10.2v15L335.3,49z"/>
</g>
<linearGradient id="SVGID_1_" gradientUnits="userSpaceOnUse" x1="0" y1="33.735" x2="92.1102" y2="33.735">
	<stop  offset="1.246007e-07" style="stop-color:#9580FF"/>
	<stop  offset="1" style="stop-color:#FF80BF"/>
</linearGradient>
<path class="st1" d="M85.3,11.9c-3.9,0-27.5,6.8-34.9,14.8c-0.5-0.2-1.1-0.3-1.8-0.3h-5.3c-0.7,0-1.3,0.1-1.8,0.4
	c-7.2-8.2-30.9-15-34.9-15c-9.1,0-9,44,0,44c7.7,0,29.1-7,35.2-15c0.5,0.2,1,0.3,1.5,0.3h5.3c0.5,0,0.9-0.1,1.4-0.2
	c6.3,7.9,27.5,14.8,35.2,14.8C94.3,55.6,94.4,11.9,85.3,11.9z"/>
</svg>
